<?xml version="1.0" standalone="no"?>
<!DOCTYPE svg PUBLIC "-//W3C//DTD SVG 20010904//EN"
 "http://www.w3.org/TR/2001/REC-SVG-20010904/DTD/svg10.dtd">
<svg version="1.0" xmlns="http://www.w3.org/2000/svg"
 width="400.000000pt" height="400.000000pt" viewBox="0 0 400.000000 400.000000"
 preserveAspectRatio="xMidYMid meet">

<g transform="translate(0.000000,400.000000) scale(0.100000,-0.100000)"
fill="#000000" stroke="none">
<path d="M1762 3634 c-504 -73 -964 -393 -1209 -842 -354 -644 -239 -1436 282
-1957 521 -521 1313 -636 1957 -282 267 146 509 388 655 655 354 644 239 1436
-282 1957 -319 319 -729 488 -1178 484 -73 -1 -174 -7 -225 -15z m553 -44
c147 -31 291 -82 423 -150 443 -227 746 -629 853 -1130 20 -90 23 -135 23
-310 0 -175 -3 -220 -23 -310 -70 -327 -221 -609 -447 -834 -225 -226 -507
-377 -834 -447 -90 -20 -135 -23 -310 -23 -175 0 -220 3 -310 23 -327 70 -609
221 -834 447 -226 225 -377 507 -447 834 -20 90 -23 135 -23 310 0 175 3 220
23 310 107 500 411 903 851 1129 172 88 351 145 540 171 111 15 401 4 515 -20z"/>
<path d="M1002 2778 l3 -53 284 -3 c201 -2 288 1 297 9 14 12 19 56 8 83 -5
14 -41 16 -301 16 l-294 0 3 -52z"/>
<path d="M1810 2815 c0 -8 7 -15 14 -15 11 0 16 -15 18 -52 2 -39 7 -53 18
-53 11 0 16 14 18 53 2 37 7 52 18 52 7 0 14 7 14 15 0 11 -12 15 -50 15 -38
0 -50 -4 -50 -15z"/>
<path d="M1972 2763 c2 -53 6 -68 18 -68 9 0 16 11 18 28 3 21 9 27 27 27 18
0 24 -6 27 -25 6 -52 23 -28 26 38 2 55 0 67 -13 67 -9 0 -15 -9 -15 -25 0
-20 -5 -25 -25 -25 -20 0 -25 5 -25 25 0 19 -5 25 -20 25 -19 0 -21 -5 -18
-67z"/>
<path d="M2170 2759 l0 -70 48 3 c34 2 47 7 47 18 0 10 -12 16 -32 18 -36 4
-46 22 -13 22 11 0 20 7 20 15 0 8 -9 15 -20 15 -11 0 -20 5 -20 10 0 6 16 10
35 10 24 0 35 5 35 15 0 11 -12 15 -50 15 l-50 0 0 -71z"/>
<path d="M996 2626 c-20 -24 -52 -54 -72 -67 -34 -21 -36 -24 -31 -66 2 -23
10 -50 17 -58 19 -22 66 -18 114 10 46 27 63 26 105 -7 33 -25 75 -22 123 9
l41 27 48 -27 c27 -15 58 -27 69 -27 11 0 42 12 69 27 l48 27 41 -27 c76 -50
132 -27 132 54 0 29 -6 40 -27 54 -15 10 -48 40 -74 67 -42 44 -51 49 -84 46
l-37 -3 45 -67 45 -68 -53 0 -53 0 -28 70 c-27 70 -27 70 -65 70 -36 0 -38 -2
-34 -27 2 -16 7 -47 10 -70 l5 -43 -53 0 -54 0 8 48 c15 88 14 92 -28 92 -38
0 -38 -1 -63 -68 l-25 -67 -53 -3 c-28 -2 -52 -1 -52 1 0 3 18 32 40 65 22 33
40 62 40 66 0 3 -17 6 -39 6 -34 0 -43 -6 -75 -44z"/>
<path d="M2554 2626 c-17 -8 -40 -26 -52 -41 -21 -26 -22 -37 -22 -240 0 -199
1 -214 20 -238 41 -52 170 -44 226 14 l29 30 3 187 c4 215 -3 253 -51 282 -37
23 -107 26 -153 6z m84 -268 c-3 -185 -4 -193 -23 -193 -19 0 -20 8 -23 180
-1 98 0 185 2 192 3 7 15 13 26 13 20 0 20 -4 18 -192z"/>
<path d="M2840 2369 l0 -271 106 4 c105 3 106 3 135 36 l29 32 0 191 c0 213
-5 235 -64 263 -23 11 -61 16 -120 16 l-86 0 0 -271z m144 185 c14 -5 16 -31
16 -184 0 -183 -1 -190 -41 -190 -5 0 -9 81 -9 190 0 109 4 190 9 190 5 0 16
-3 25 -6z"/>
<path d="M2240 2601 c-50 -10 -91 -40 -106 -78 -18 -42 -20 -409 -3 -447 16
-35 72 -59 117 -51 69 12 101 26 127 57 l25 30 -2 225 -3 226 -25 19 c-30 22
-81 30 -130 19z m45 -282 c0 -194 0 -194 -22 -197 l-23 -3 0 194 c0 195 3 211
35 203 6 -2 10 -76 10 -197z"/>
<path d="M1905 2556 l-90 -11 -3 -287 -2 -288 29 0 c15 0 43 3 60 6 l31 7 0
133 0 134 24 0 c13 0 38 3 55 6 29 6 31 9 31 50 0 23 -3 45 -7 47 -5 3 -29 2
-55 -3 l-48 -7 0 58 0 58 48 6 c72 10 72 10 72 60 0 52 8 50 -145 31z"/>
<path d="M970 2177 c0 -158 3 -197 16 -215 15 -22 17 -22 308 -22 271 0 294 1
309 18 15 16 17 46 17 215 l0 197 -55 0 -55 0 0 -140 0 -140 -215 0 -215 0 0
140 0 140 -55 0 -55 0 0 -193z"/>
<path d="M2831 1986 c-7 -8 -11 -30 -9 -48 3 -31 5 -33 45 -36 l43 -3 2 -227
3 -227 55 0 55 0 3 228 2 227 40 0 40 0 0 44 c0 42 -1 44 -37 50 -76 12 -230
7 -242 -8z"/>
<path d="M2630 1983 c-25 -2 -60 -6 -77 -8 l-33 -6 0 -276 0 -276 58 6 c31 4
85 9 120 13 l62 7 0 43 0 44 -60 0 -61 0 3 78 3 77 50 5 50 5 0 45 0 45 -52
-3 -53 -4 0 56 c0 55 1 56 29 56 16 0 43 3 60 6 29 6 31 9 31 50 l0 44 -42 -2
c-24 -1 -63 -3 -88 -5z"/>
<path d="M2376 1951 c-27 -5 -32 -15 -70 -120 -23 -63 -47 -116 -53 -119 -10
-3 -13 23 -13 108 0 101 -2 111 -17 107 -10 -3 -35 -8 -55 -12 l-38 -6 0 -288
0 -289 53 12 52 11 3 123 c2 76 7 122 13 122 45 0 75 -53 85 -154 6 -55 10
-66 23 -62 9 3 33 8 55 12 l38 7 -4 71 c-4 75 -24 128 -63 170 l-24 26 50 135
c27 74 49 140 49 145 0 11 -38 11 -84 1z"/>
<path d="M1865 1869 c-27 -5 -60 -12 -72 -14 l-23 -5 0 -295 c0 -330 -6 -306
73 -284 l37 10 1 102 0 102 36 -93 36 -94 45 7 c59 9 74 15 69 29 -3 6 -23 57
-45 113 -40 101 -40 102 -20 120 37 33 48 69 48 152 0 146 -37 176 -185 150z
m65 -169 c0 -44 -4 -80 -9 -80 -5 0 -16 -3 -25 -6 -14 -5 -16 6 -16 80 0 85 0
86 25 86 25 0 25 -1 25 -80z"/>
<path d="M1543 1821 c-29 -4 -57 -11 -62 -16 -11 -12 -81 -597 -72 -607 3 -4
29 -4 56 0 l50 7 3 53 c3 46 6 53 28 58 32 8 35 4 41 -51 3 -25 7 -45 9 -45 2
0 26 5 54 11 61 13 60 -9 20 294 -40 314 -39 305 -58 304 -10 -1 -41 -5 -69
-8z m26 -353 c1 -42 -2 -48 -19 -48 -18 0 -20 5 -15 38 2 20 8 73 12 117 l7
80 7 -70 c4 -38 7 -91 8 -117z"/>
<path d="M975 1797 c-3 -7 -4 -149 -3 -317 l3 -305 57 -3 57 -3 3 138 3 138
29 -108 c16 -59 32 -105 35 -101 3 3 18 49 33 102 l26 97 1 -127 1 -128 60 0
60 0 0 311 0 310 -52 -3 -53 -3 -28 -120 c-54 -227 -45 -222 -86 -45 -20 85
-40 161 -44 168 -11 16 -96 16 -102 -1z"/>
<path d="M2545 1285 c-30 -29 -32 -68 -5 -95 21 -21 65 -26 90 -10 20 13 4 25
-33 25 -28 0 -32 4 -35 29 -4 33 13 48 44 40 29 -7 40 12 15 25 -30 17 -50 13
-76 -14z"/>
<path d="M2720 1290 c-26 -26 -26 -81 -2 -103 26 -23 75 -21 97 3 59 65 -33
162 -95 100z m80 -49 c0 -28 -28 -47 -48 -34 -24 15 -27 44 -7 59 22 17 55 1
55 -25z"/>
<path d="M2901 1247 c-14 -79 -14 -77 3 -77 8 0 17 12 21 28 l7 27 14 -27 c8
-16 18 -28 23 -28 4 0 14 12 21 28 l14 27 4 -27 c2 -17 9 -28 19 -28 13 0 14
9 8 58 -10 86 -19 93 -45 42 l-22 -44 -23 37 c-12 21 -24 40 -27 43 -3 3 -11
-24 -17 -59z"/>
<path d="M2412 1238 c2 -13 10 -23 18 -23 8 0 16 10 18 23 3 17 -2 22 -18 22
-16 0 -21 -5 -18 -22z"/>
</g>
</svg>
